# xmcd
#
# Track frame offsets: 
#        182
#        13227
#        27680
#        41082
#        54762
#        67685
#        81065
#        94680
#        108405
#        122477
#        136165
#        148395
#
# Disc length: 2147 seconds
#
# Revision: 4
# Processed by: cddbd v1.5.1PL0 Copyright (c) Steve Scherf et al.
# Submitted via: ExactAudioCopy v0.95b2
#
DISCID=9e08610c
DTITLE=Hank Williams ( as "Luke The Drifter" ) - Beyond The Sunset
DYEAR=1963
DGENRE=Country
TTITLE0=A Picture From Life's Other Side
TTITLE1=Men With Broken Hearts
TTITLE2=Help Me Understand
TTITLE3=Too Many Parties And Too Many Pals
TTITLE4=Why Don't You Make Up Your Mind
TTITLE5=I've Been Down That Road Before
TTITLE6=Be Careful Of Stones That You Throw
TTITLE7=I Dreamed About Mama Last Night
TTITLE8=The Funeral
TTITLE9=Beyond The Sunset
TTITLE10=Just Waitin'
TTITLE11=Everything's Okay
EXTD=
EXTT0=
EXTT1=
EXTT2=
EXTT3=
EXTT4=
EXTT5=
EXTT6=
EXTT7=
EXTT8=
EXTT9=
EXTT10=
EXTT11=
PLAYORDER=
